<svg width="27" height="27" viewBox="0 0 27 27" fill="none" xmlns="http://www.w3.org/2000/svg">
<circle cx="13.5" cy="13.5" r="13.5" fill="#4B4B4B"/>
<path d="M19.4863 10.5961C19.0822 10.7757 18.6557 10.8879 18.2068 10.9552C18.6557 10.6859 19.0149 10.2594 19.172 9.74307C18.7455 9.98999 18.2741 10.1696 17.7578 10.2818C17.3538 9.85531 16.7701 9.58594 16.1416 9.58594C14.9294 9.58594 13.9417 10.5736 13.9417 11.7858C13.9417 11.9654 13.9642 12.1225 14.0091 12.2797C12.1908 12.1899 10.5521 11.3144 9.4522 9.96755C9.27262 10.3043 9.16038 10.6634 9.16038 11.0675C9.16038 11.8307 9.54199 12.5041 10.1481 12.9082C9.78891 12.8857 9.4522 12.7959 9.13793 12.6388V12.6613C9.13793 13.7387 9.90115 14.6367 10.9113 14.8387C10.7317 14.8836 10.5297 14.906 10.3277 14.906C10.193 14.906 10.0358 14.8836 9.90115 14.8611C10.193 15.7366 11.0011 16.3876 11.9663 16.3876C11.2031 16.9712 10.2603 17.3304 9.22772 17.3304C9.04814 17.3304 8.86856 17.3304 8.71143 17.3079C9.69912 17.9365 10.8439 18.2956 12.101 18.2956C16.164 18.2956 18.3863 14.9285 18.3863 12.0103C18.3863 11.9205 18.3863 11.8083 18.3863 11.7185C18.8129 11.4266 19.1945 11.045 19.4863 10.5961Z" fill="white"/>
</svg>
