<svg width="27" height="27" viewBox="0 0 27 27" fill="none" xmlns="http://www.w3.org/2000/svg">
<circle cx="13.5" cy="13.5" r="13.5" fill="#4B4B4B"/>
<path d="M13.501 8.14531C15.2451 8.14531 15.4517 8.15184 16.1407 8.18326C16.5549 8.18833 16.9652 8.2644 17.3538 8.40816C17.6356 8.51682 17.8915 8.68329 18.105 8.89683C18.3186 9.11038 18.485 9.36627 18.5937 9.64804C18.7374 10.0366 18.8135 10.4469 18.8186 10.8612C18.8497 11.5502 18.8565 11.7567 18.8565 13.5008C18.8565 15.2449 18.85 15.4515 18.8186 16.1405C18.8135 16.5547 18.7374 16.9651 18.5937 17.3536C18.485 17.6354 18.3186 17.8913 18.105 18.1048C17.8915 18.3184 17.6356 18.4848 17.3538 18.5935C16.9652 18.7373 16.5549 18.8133 16.1407 18.8184C15.452 18.8495 15.2454 18.8563 13.501 18.8563C11.7566 18.8563 11.55 18.8498 10.8614 18.8184C10.4471 18.8133 10.0368 18.7373 9.64822 18.5935C9.36645 18.4848 9.11056 18.3184 8.89701 18.1048C8.68347 17.8913 8.517 17.6354 8.40834 17.3536C8.26458 16.9651 8.18851 16.5547 8.18344 16.1405C8.15233 15.4515 8.14549 15.2449 8.14549 13.5008C8.14549 11.7567 8.15202 11.5502 8.18344 10.8612C8.18851 10.4469 8.26458 10.0366 8.40834 9.64804C8.517 9.36627 8.68347 9.11038 8.89701 8.89683C9.11056 8.68329 9.36645 8.51682 9.64822 8.40816C10.0368 8.2644 10.4471 8.18833 10.8614 8.18326C11.5504 8.15216 11.7569 8.14531 13.501 8.14531ZM13.501 6.96826C11.728 6.96826 11.5046 6.97573 10.8079 7.00746C10.2657 7.01824 9.72928 7.12089 9.22145 7.31105C8.7858 7.47519 8.39122 7.7324 8.06524 8.06475C7.73259 8.39085 7.47515 8.78566 7.31092 9.22158C7.12076 9.72941 7.01811 10.2658 7.00732 10.808C6.97622 11.5041 6.96875 11.7275 6.96875 13.5005C6.96875 15.2736 6.97622 15.4969 7.00794 16.1937C7.01873 16.7358 7.12138 17.2722 7.31154 17.7801C7.47559 18.2159 7.73281 18.6107 8.06524 18.9369C8.3914 19.2693 8.7862 19.5266 9.22207 19.6906C9.7299 19.8808 10.2663 19.9834 10.8085 19.9942C11.5052 20.0253 11.7277 20.0334 13.5016 20.0334C15.2756 20.0334 15.498 20.0259 16.1948 19.9942C16.7369 19.9834 17.2734 19.8808 17.7812 19.6906C18.215 19.5225 18.6089 19.2656 18.9378 18.9365C19.2667 18.6075 19.5232 18.2134 19.6911 17.7795C19.8813 17.2716 19.9839 16.7352 19.9947 16.1931C20.0258 15.4969 20.0333 15.2736 20.0333 13.5005C20.0333 11.7275 20.0258 11.5041 19.9941 10.8074C19.9833 10.2652 19.8806 9.72879 19.6905 9.22096C19.5264 8.78509 19.2692 8.39029 18.9368 8.06413C18.6106 7.7317 18.2158 7.47448 17.7799 7.31043C17.2721 7.12027 16.7357 7.01762 16.1935 7.00683C15.4974 6.97573 15.274 6.96826 13.501 6.96826Z" fill="white"/>
<path d="M13.5014 10.1484C12.838 10.1484 12.1894 10.3452 11.6378 10.7138C11.0862 11.0824 10.6562 11.6063 10.4023 12.2192C10.1484 12.8322 10.082 13.5066 10.2114 14.1573C10.3409 14.808 10.6603 15.4057 11.1295 15.8749C11.5986 16.344 12.1963 16.6635 12.847 16.7929C13.4977 16.9224 14.1722 16.8559 14.7851 16.602C15.3981 16.3481 15.922 15.9182 16.2906 15.3666C16.6592 14.8149 16.8559 14.1664 16.8559 13.5029C16.8559 12.6132 16.5025 11.76 15.8734 11.1309C15.2443 10.5019 14.3911 10.1484 13.5014 10.1484ZM13.5014 15.6803C13.0708 15.6803 12.6498 15.5526 12.2917 15.3134C11.9337 15.0741 11.6546 14.734 11.4898 14.3362C11.325 13.9383 11.2818 13.5005 11.3659 13.0781C11.4499 12.6557 11.6573 12.2678 11.9618 11.9632C12.2663 11.6587 12.6543 11.4513 13.0767 11.3673C13.499 11.2833 13.9368 11.3264 14.3347 11.4912C14.7326 11.656 15.0726 11.9351 15.3119 12.2932C15.5512 12.6513 15.6789 13.0723 15.6789 13.5029C15.6789 14.0804 15.4495 14.6342 15.0411 15.0426C14.6328 15.4509 14.0789 15.6803 13.5014 15.6803Z" fill="white"/>
<path d="M16.988 10.7963C17.4209 10.7963 17.7718 10.4453 17.7718 10.0124C17.7718 9.57947 17.4209 9.22852 16.988 9.22852C16.5551 9.22852 16.2041 9.57947 16.2041 10.0124C16.2041 10.4453 16.5551 10.7963 16.988 10.7963Z" fill="white"/>
</svg>
